<svg id="svg" version="1.1" xmlns="http://www.w3.org/2000/svg" xmlns:xlink="http://www.w3.org/1999/xlink" width="400" height="400" viewBox="0, 0, 400,400"><g id="svgg"><path id="path0" d="M281.400 57.653 C 279.640 57.844,276.580 58.528,274.600 59.173 C 272.565 59.836,269.175 60.544,266.800 60.803 C 261.916 61.335,259.457 61.769,257.847 62.381 C 256.052 63.065,253.802 63.501,248.530 64.186 C 245.851 64.534,242.881 65.162,241.930 65.582 C 240.978 66.002,237.228 66.789,233.596 67.331 C 229.964 67.873,225.464 68.775,223.596 69.337 C 221.728 69.899,217.860 70.725,215.000 71.173 C 212.140 71.622,208.501 72.342,206.913 72.773 C 205.324 73.205,201.814 73.850,199.113 74.207 C 196.411 74.564,193.480 75.177,192.600 75.569 C 190.780 76.379,187.884 76.955,182.400 77.599 C 180.310 77.844,176.800 78.558,174.600 79.186 C 172.400 79.814,168.370 80.622,165.643 80.982 C 162.917 81.342,160.066 81.896,159.306 82.213 C 158.547 82.531,154.927 83.266,151.263 83.847 C 147.598 84.428,144.060 85.136,143.400 85.421 C 142.740 85.706,139.892 86.414,137.071 86.995 C 129.780 88.495,125.675 91.406,123.525 96.600 L 122.200 99.800 122.200 111.600 C 122.200 118.090,122.428 130.600,122.706 139.400 C 123.207 155.216,124.272 225.742,124.475 256.469 C 124.590 273.752,124.621 273.495,122.320 274.226 C 121.633 274.444,121.616 274.524,122.170 274.936 C 123.524 275.942,123.391 278.756,121.837 281.989 C 121.047 283.633,120.400 285.202,120.400 285.477 C 120.400 285.751,120.011 286.656,119.535 287.488 C 119.060 288.320,117.968 290.350,117.108 292.000 C 114.233 297.520,110.775 303.329,109.966 304.000 C 109.833 304.110,108.869 305.369,107.822 306.798 C 103.541 312.646,94.229 321.443,90.079 323.559 C 89.202 324.007,88.187 324.671,87.824 325.034 C 87.461 325.396,86.227 326.187,85.082 326.791 C 83.937 327.395,82.280 328.271,81.400 328.737 C 77.137 330.998,73.104 332.555,69.789 333.222 C 67.782 333.626,65.203 334.326,64.056 334.778 C 62.036 335.574,59.455 335.819,57.792 335.372 C 56.525 335.031,56.993 332.473,58.982 328.867 C 59.913 327.180,61.151 324.132,61.734 322.093 C 62.317 320.054,63.245 317.495,63.797 316.406 C 64.349 315.317,64.800 314.233,64.800 313.997 C 64.800 313.760,65.161 313.179,65.602 312.706 C 66.043 312.233,66.739 311.115,67.149 310.223 C 68.844 306.531,69.201 305.653,69.213 305.140 C 69.219 304.843,69.759 303.525,70.413 302.210 C 71.066 300.896,71.600 299.584,71.600 299.294 C 71.600 299.005,71.960 298.062,72.400 297.200 C 72.840 296.338,73.200 295.347,73.200 295.000 C 73.200 294.415,74.627 292.080,75.288 291.584 C 75.665 291.301,76.796 288.085,76.813 287.250 C 76.819 286.892,77.243 285.790,77.754 284.800 C 78.265 283.810,79.095 282.190,79.599 281.200 C 80.102 280.210,80.943 278.836,81.468 278.147 C 83.216 275.854,84.800 272.089,84.800 270.230 L 84.800 268.472 87.700 267.936 C 89.453 267.612,93.520 267.400,97.984 267.400 L 105.368 267.400 99.984 266.499 C 91.371 265.057,80.493 266.345,73.799 269.600 C 71.990 270.480,70.250 271.200,69.934 271.200 C 69.617 271.200,68.647 271.706,67.779 272.323 C 66.910 272.941,65.390 273.792,64.400 274.215 C 63.410 274.637,62.362 275.304,62.072 275.698 C 61.782 276.092,60.696 276.844,59.660 277.370 C 58.624 277.895,57.526 278.791,57.220 279.362 C 56.915 279.933,56.497 280.400,56.291 280.400 C 55.943 280.400,53.300 283.020,49.300 287.331 C 48.365 288.338,47.600 289.366,47.600 289.615 C 47.600 289.863,46.979 290.670,46.220 291.407 C 45.461 292.143,44.361 293.703,43.775 294.873 C 43.188 296.043,42.472 297.270,42.183 297.600 C 41.894 297.930,41.357 299.087,40.989 300.172 C 40.621 301.256,39.902 302.806,39.390 303.615 C 35.524 309.740,35.451 331.330,39.276 337.409 C 39.827 338.284,40.507 339.720,40.788 340.600 C 41.069 341.480,41.610 342.560,41.991 343.000 C 42.372 343.440,43.181 344.803,43.789 346.029 C 44.397 347.254,45.415 348.604,46.050 349.029 C 46.685 349.453,47.309 350.125,47.437 350.523 C 47.775 351.576,54.757 358.342,56.400 359.208 C 57.170 359.614,58.250 360.369,58.800 360.886 C 59.350 361.404,60.520 362.155,61.400 362.556 C 62.280 362.958,63.656 363.728,64.459 364.269 C 65.261 364.809,67.189 365.682,68.744 366.208 C 70.298 366.734,72.162 367.470,72.885 367.845 C 74.285 368.570,79.886 369.694,85.800 370.436 C 89.641 370.917,97.700 370.722,101.000 370.068 C 102.100 369.849,104.350 369.456,106.000 369.194 C 107.650 368.931,110.080 368.216,111.400 367.605 C 112.720 366.993,114.520 366.266,115.400 365.989 C 116.280 365.711,117.539 365.035,118.197 364.486 C 118.855 363.937,120.154 363.163,121.083 362.764 C 122.013 362.366,123.724 361.316,124.886 360.430 C 129.437 356.963,130.917 355.772,131.546 355.068 C 131.906 354.666,132.889 353.624,133.732 352.754 C 135.353 351.080,139.200 345.554,139.200 344.901 C 139.200 344.689,139.828 343.693,140.595 342.689 C 141.553 341.433,142.260 339.821,142.856 337.531 C 143.332 335.699,144.129 333.390,144.625 332.400 C 146.468 328.728,146.500 326.883,146.345 235.600 L 146.200 150.200 147.114 148.400 C 149.265 144.165,149.709 143.513,151.939 141.313 C 154.942 138.352,156.978 136.888,158.771 136.402 C 163.684 135.071,165.910 134.628,174.000 133.373 C 178.950 132.605,184.080 131.631,185.400 131.207 C 187.812 130.434,188.903 130.210,197.000 128.825 C 199.420 128.412,202.480 127.791,203.800 127.446 C 205.120 127.101,208.270 126.527,210.800 126.171 C 213.330 125.815,216.762 125.105,218.426 124.592 C 220.091 124.079,224.141 123.276,227.426 122.808 C 230.712 122.339,233.850 121.785,234.400 121.575 C 235.955 120.982,240.521 120.033,246.000 119.165 C 248.750 118.730,251.810 118.064,252.800 117.687 C 260.163 114.878,271.238 118.763,273.850 125.073 C 274.198 125.913,274.959 127.590,275.541 128.800 L 276.600 131.000 276.712 181.600 C 276.843 241.181,277.207 236.875,272.200 234.963 C 271.674 234.762,271.986 235.299,273.108 236.528 C 274.352 237.891,274.764 238.644,274.627 239.299 C 274.523 239.795,274.136 242.000,273.768 244.200 C 272.892 249.429,266.886 264.446,265.210 265.600 C 265.050 265.710,264.416 266.610,263.801 267.600 C 263.186 268.590,262.214 269.964,261.641 270.653 C 261.069 271.343,260.150 272.505,259.600 273.236 C 257.962 275.415,252.581 280.534,250.152 282.224 C 248.906 283.091,247.433 284.227,246.877 284.748 C 246.322 285.270,245.263 285.949,244.524 286.257 C 243.786 286.566,242.865 287.135,242.479 287.521 C 241.762 288.238,238.598 289.600,237.648 289.600 C 237.360 289.600,236.642 289.943,236.054 290.362 C 233.047 292.503,232.335 286.237,235.173 282.609 C 235.627 282.029,237.907 274.906,238.236 273.044 C 238.387 272.188,238.860 270.568,239.287 269.444 C 239.714 268.320,240.517 265.780,241.071 263.800 C 242.618 258.274,244.895 251.046,245.229 250.600 C 245.394 250.380,245.827 249.030,246.192 247.600 C 246.851 245.017,247.714 242.143,249.299 237.245 C 249.755 235.839,250.101 234.020,250.068 233.201 L 250.010 231.713 253.305 231.300 C 255.117 231.074,258.208 230.924,260.174 230.967 L 263.748 231.046 260.774 230.272 C 257.262 229.358,251.208 229.176,248.000 229.889 C 246.790 230.157,244.388 230.668,242.662 231.024 C 240.937 231.380,238.957 232.003,238.262 232.408 C 237.568 232.813,235.830 233.546,234.400 234.035 C 232.970 234.525,231.577 235.239,231.306 235.622 C 231.034 236.006,229.684 236.860,228.306 237.520 C 226.927 238.181,225.260 239.206,224.600 239.798 C 223.940 240.391,222.927 241.122,222.348 241.423 C 221.770 241.724,221.194 242.239,221.068 242.567 C 220.942 242.895,220.123 243.529,219.249 243.975 C 218.374 244.421,217.546 245.141,217.408 245.573 C 217.271 246.006,216.583 246.728,215.879 247.178 C 215.176 247.628,213.790 248.926,212.800 250.062 C 211.810 251.198,210.370 252.774,209.600 253.564 C 208.830 254.354,207.989 255.473,207.731 256.051 C 207.473 256.629,206.739 257.709,206.099 258.451 C 205.459 259.193,204.153 261.420,203.197 263.400 C 201.568 266.771,201.099 268.468,199.546 276.600 C 198.951 279.716,198.970 288.093,199.578 290.400 C 199.839 291.390,200.387 293.730,200.796 295.600 C 201.206 297.470,202.070 300.080,202.718 301.400 C 203.366 302.720,204.113 304.475,204.379 305.300 C 204.645 306.125,205.004 306.800,205.178 306.800 C 205.604 306.800,207.411 309.568,207.793 310.805 C 207.962 311.352,208.707 312.308,209.450 312.929 C 210.192 313.550,210.800 314.299,210.800 314.594 C 210.800 314.888,211.385 315.621,212.100 316.222 C 212.814 316.824,213.712 317.830,214.094 318.458 C 214.476 319.086,215.018 319.600,215.299 319.600 C 215.579 319.600,216.257 320.154,216.804 320.830 C 217.352 321.507,218.472 322.409,219.294 322.835 C 220.116 323.262,221.082 324.058,221.440 324.605 C 221.799 325.152,222.257 325.600,222.459 325.600 C 222.661 325.600,224.035 326.389,225.513 327.354 C 226.991 328.319,228.622 329.236,229.138 329.393 C 229.653 329.549,230.823 330.173,231.738 330.777 C 232.652 331.382,235.020 332.374,237.000 332.982 C 238.980 333.590,241.230 334.405,242.000 334.793 C 246.678 337.153,266.555 336.914,271.800 334.434 C 273.120 333.810,275.100 333.071,276.200 332.792 C 277.300 332.513,279.100 331.705,280.200 330.997 C 281.300 330.288,282.830 329.388,283.600 328.998 C 285.218 328.177,287.129 326.730,288.934 324.957 C 289.630 324.274,290.679 323.409,291.264 323.035 C 291.849 322.661,292.749 321.735,293.264 320.977 C 293.779 320.219,294.506 319.500,294.880 319.379 C 295.253 319.258,295.668 318.817,295.800 318.400 C 295.933 317.982,296.581 317.063,297.241 316.357 C 297.900 315.650,298.639 314.696,298.882 314.236 C 299.125 313.776,299.896 312.680,300.595 311.800 C 301.294 310.920,302.278 309.300,302.782 308.200 C 303.286 307.100,304.110 305.710,304.614 305.110 C 305.119 304.511,305.745 303.341,306.007 302.510 C 306.268 301.680,307.002 299.910,307.637 298.577 C 308.272 297.245,308.985 295.175,309.222 293.977 C 309.647 291.824,309.540 218.478,308.959 114.010 L 308.722 71.420 307.661 69.474 C 307.077 68.404,306.295 66.979,305.922 66.307 C 305.550 65.635,304.759 64.767,304.165 64.377 C 303.571 63.987,302.705 63.223,302.242 62.679 C 298.782 58.616,290.626 56.649,281.400 57.653 M267.010 63.692 C 267.994 64.386,268.800 65.107,268.800 65.294 C 268.800 65.481,269.583 66.482,270.540 67.517 C 271.497 68.553,272.783 70.271,273.398 71.335 C 274.014 72.399,274.747 73.358,275.027 73.466 C 275.308 73.574,275.803 74.323,276.127 75.131 C 276.451 75.939,277.212 77.680,277.818 79.000 C 278.424 80.320,279.150 82.210,279.430 83.200 C 279.710 84.190,280.431 86.710,281.032 88.800 C 282.974 95.551,282.873 109.204,280.803 119.600 C 280.387 121.690,279.737 124.975,279.359 126.900 C 278.609 130.716,278.404 131.005,277.723 129.202 C 277.474 128.543,276.732 127.694,276.073 127.316 C 275.267 126.853,274.719 126.100,274.398 125.014 C 273.888 123.288,272.960 122.000,272.226 122.000 C 271.978 122.000,271.570 121.457,271.320 120.793 C 271.023 120.006,270.374 119.381,269.454 118.997 C 268.679 118.673,267.616 117.980,267.094 117.457 C 265.696 116.060,262.086 115.584,253.128 115.618 C 244.147 115.652,243.813 115.585,244.208 113.843 C 245.067 110.058,244.880 104.954,243.825 103.399 C 243.261 102.568,242.800 101.408,242.800 100.821 C 242.800 100.233,242.536 99.404,242.213 98.976 C 241.890 98.549,241.620 97.446,241.613 96.524 C 241.606 95.602,241.420 94.736,241.200 94.600 C 240.971 94.459,240.800 92.412,240.800 89.824 C 240.800 85.866,240.665 84.949,239.730 82.548 C 238.952 80.551,238.577 78.652,238.355 75.600 C 238.188 73.290,237.932 70.748,237.788 69.951 L 237.524 68.501 240.262 68.228 C 243.798 67.875,246.457 67.009,247.784 65.780 C 248.442 65.170,249.325 64.797,250.121 64.793 C 252.627 64.779,258.321 63.642,259.848 62.851 C 262.024 61.723,264.655 62.032,267.010 63.692 " stroke="none" fill="#21b957" fill-rule="evenodd"></path><path id="path1" d="M259.848 62.851 C 258.321 63.642,252.627 64.779,250.121 64.793 C 249.325 64.797,248.442 65.170,247.784 65.780 C 246.457 67.009,243.798 67.875,240.262 68.228 L 237.524 68.501 237.788 69.951 C 237.932 70.748,238.188 73.290,238.355 75.600 C 238.577 78.652,238.952 80.551,239.730 82.548 C 240.665 84.949,240.800 85.866,240.800 89.824 C 240.800 92.412,240.971 94.459,241.200 94.600 C 241.420 94.736,241.606 95.602,241.613 96.524 C 241.620 97.446,241.890 98.549,242.213 98.976 C 242.536 99.404,242.800 100.233,242.800 100.821 C 242.800 101.408,243.261 102.568,243.825 103.399 C 244.880 104.954,245.067 110.058,244.208 113.843 C 243.813 115.585,244.147 115.652,253.128 115.618 C 262.086 115.584,265.696 116.060,267.094 117.457 C 267.616 117.980,268.679 118.673,269.454 118.997 C 270.374 119.381,271.023 120.006,271.320 120.793 C 271.570 121.457,271.978 122.000,272.226 122.000 C 272.960 122.000,273.888 123.288,274.398 125.014 C 274.719 126.100,275.267 126.853,276.073 127.316 C 276.732 127.694,277.474 128.543,277.723 129.202 C 278.404 131.005,278.609 130.716,279.359 126.900 C 279.737 124.975,280.387 121.690,280.803 119.600 C 282.873 109.204,282.974 95.551,281.032 88.800 C 280.431 86.710,279.710 84.190,279.430 83.200 C 279.150 82.210,278.424 80.320,277.818 79.000 C 277.212 77.680,276.451 75.939,276.127 75.131 C 275.803 74.323,275.308 73.574,275.027 73.466 C 274.747 73.358,274.014 72.399,273.398 71.335 C 272.783 70.271,271.497 68.553,270.540 67.517 C 269.583 66.482,268.800 65.481,268.800 65.294 C 268.800 63.256,262.424 61.515,259.848 62.851 M253.105 231.335 L 250.009 231.694 250.068 233.192 C 250.100 234.016,249.755 235.839,249.299 237.245 C 247.714 242.143,246.851 245.017,246.192 247.600 C 245.827 249.030,245.394 250.380,245.229 250.600 C 244.895 251.046,242.618 258.274,241.071 263.800 C 240.517 265.780,239.714 268.320,239.287 269.444 C 238.860 270.568,238.387 272.188,238.236 273.044 C 237.907 274.906,235.627 282.029,235.173 282.609 C 232.335 286.237,233.047 292.503,236.054 290.362 C 236.642 289.943,237.360 289.600,237.648 289.600 C 238.598 289.600,241.762 288.238,242.479 287.521 C 242.865 287.135,243.786 286.566,244.524 286.257 C 245.263 285.949,246.322 285.270,246.877 284.748 C 247.433 284.227,248.906 283.091,250.152 282.224 C 252.581 280.534,257.962 275.415,259.600 273.236 C 260.150 272.505,261.069 271.343,261.641 270.653 C 262.214 269.964,263.186 268.590,263.801 267.600 C 264.416 266.610,265.050 265.710,265.210 265.600 C 266.886 264.446,272.892 249.429,273.768 244.200 C 274.136 242.000,274.522 239.798,274.625 239.308 C 274.898 238.003,272.295 235.309,269.468 233.970 C 268.185 233.363,266.835 232.596,266.468 232.266 C 264.963 230.914,259.816 230.556,253.105 231.335 M91.000 267.404 C 90.780 267.482,89.295 267.754,87.700 268.009 L 84.800 268.472 84.800 270.230 C 84.800 272.089,83.216 275.854,81.468 278.147 C 80.943 278.836,80.102 280.210,79.599 281.200 C 79.095 282.190,78.265 283.810,77.754 284.800 C 77.243 285.790,76.819 286.892,76.813 287.250 C 76.796 288.085,75.665 291.301,75.288 291.584 C 74.627 292.080,73.200 294.415,73.200 295.000 C 73.200 295.347,72.840 296.338,72.400 297.200 C 71.960 298.062,71.600 299.005,71.600 299.294 C 71.600 299.584,71.066 300.896,70.413 302.210 C 69.759 303.525,69.219 304.843,69.213 305.140 C 69.201 305.653,68.844 306.531,67.149 310.223 C 66.739 311.115,66.043 312.233,65.602 312.706 C 65.161 313.179,64.800 313.760,64.800 313.997 C 64.800 314.233,64.349 315.317,63.797 316.406 C 63.245 317.495,62.317 320.054,61.734 322.093 C 61.151 324.132,59.913 327.180,58.982 328.867 C 56.993 332.473,56.525 335.031,57.792 335.372 C 59.455 335.819,62.036 335.574,64.056 334.778 C 65.203 334.326,67.782 333.626,69.789 333.222 C 73.104 332.555,77.137 330.998,81.400 328.737 C 82.280 328.271,83.937 327.395,85.082 326.791 C 86.227 326.187,87.461 325.396,87.824 325.034 C 88.187 324.671,89.202 324.007,90.079 323.559 C 93.042 322.048,99.109 316.718,104.660 310.751 C 105.353 310.006,106.776 308.228,107.822 306.798 C 108.869 305.369,109.833 304.110,109.966 304.000 C 110.775 303.329,114.233 297.520,117.108 292.000 C 117.968 290.350,119.060 288.320,119.535 287.488 C 120.011 286.656,120.400 285.764,120.400 285.506 C 120.400 285.247,121.052 283.645,121.850 281.946 C 124.094 277.164,123.731 275.643,119.901 273.779 C 118.337 273.018,116.775 272.140,116.429 271.829 C 116.083 271.517,115.260 271.139,114.600 270.988 C 113.940 270.837,112.212 270.112,110.759 269.377 C 107.310 267.631,94.100 266.312,91.000 267.404 " stroke="none" fill="#60ca86" fill-rule="evenodd"></path><path id="path2" d="M0.000 200.000 L 0.000 400.000 200.000 400.000 L 400.000 400.000 400.000 200.000 L 400.000 0.000 200.000 0.000 L 0.000 0.000 0.000 200.000 M290.400 53.998 C 294.465 54.790,300.132 56.776,301.175 57.776 C 301.763 58.339,302.414 58.801,302.622 58.803 C 303.181 58.807,307.305 62.812,308.180 64.200 C 308.596 64.860,309.263 65.633,309.662 65.919 C 311.325 67.106,311.518 69.508,311.763 92.000 C 311.891 103.770,312.179 128.070,312.404 146.000 C 313.487 232.420,313.627 291.562,312.753 293.971 C 312.309 295.197,311.608 297.328,311.196 298.708 C 310.784 300.087,309.923 301.990,309.284 302.937 C 308.645 303.884,307.991 305.186,307.831 305.830 C 307.524 307.066,305.572 310.398,305.154 310.399 C 305.019 310.400,304.599 311.210,304.221 312.201 C 303.843 313.191,303.215 314.226,302.826 314.501 C 302.437 314.775,301.819 315.582,301.453 316.293 C 301.086 317.004,300.245 318.140,299.583 318.818 C 298.920 319.495,297.898 320.776,297.310 321.665 C 296.722 322.553,295.819 323.441,295.304 323.637 C 294.788 323.832,294.080 324.489,293.728 325.096 C 293.377 325.703,291.947 327.010,290.551 328.000 C 289.154 328.990,288.009 329.945,288.006 330.122 C 288.003 330.300,287.224 330.788,286.275 331.208 C 285.326 331.628,284.219 332.337,283.814 332.784 C 283.409 333.232,282.077 333.913,280.852 334.299 C 279.628 334.684,278.198 335.397,277.675 335.881 C 277.079 336.433,275.580 337.002,273.662 337.404 C 271.978 337.756,269.520 338.384,268.200 338.798 C 262.284 340.654,254.015 340.985,248.800 339.575 C 247.150 339.129,243.820 338.339,241.400 337.819 C 236.939 336.860,234.257 335.939,233.807 335.211 C 233.671 334.991,232.589 334.529,231.404 334.184 C 230.219 333.839,228.563 333.092,227.724 332.522 C 226.886 331.953,225.456 331.168,224.547 330.778 C 223.637 330.388,222.647 329.720,222.347 329.294 C 222.046 328.868,221.170 328.195,220.400 327.800 C 216.850 325.976,207.324 316.556,205.816 313.377 C 205.444 312.593,204.864 311.846,204.526 311.716 C 204.189 311.587,203.393 310.383,202.756 309.041 C 202.120 307.698,201.249 306.060,200.820 305.400 C 200.392 304.740,199.646 302.940,199.163 301.400 C 198.681 299.860,197.975 297.970,197.594 297.200 C 195.229 292.412,195.369 273.639,197.812 268.000 C 198.336 266.790,198.966 264.990,199.213 264.000 C 199.460 263.010,200.174 261.553,200.799 260.763 C 201.425 259.972,202.222 258.643,202.570 257.809 C 202.919 256.975,203.752 255.642,204.422 254.846 C 205.092 254.051,206.373 252.500,207.269 251.400 C 209.350 248.846,213.841 244.156,214.948 243.382 C 215.417 243.055,216.610 242.075,217.600 241.205 C 220.735 238.451,222.949 236.817,224.657 235.997 C 225.569 235.559,226.415 234.939,226.538 234.618 C 226.806 233.918,229.300 232.606,231.100 232.217 C 231.815 232.063,232.400 231.804,232.400 231.642 C 232.400 231.092,235.389 229.671,237.917 229.019 C 239.302 228.661,241.138 228.003,241.997 227.555 C 246.192 225.368,261.627 225.539,264.400 227.803 C 264.730 228.072,266.080 228.623,267.400 229.027 C 268.720 229.430,270.279 230.235,270.866 230.815 L 271.931 231.870 272.466 230.835 C 273.083 229.639,273.371 156.496,272.829 138.737 L 272.527 128.875 271.106 126.737 C 269.154 123.801,266.666 121.666,264.660 121.203 C 261.584 120.493,248.573 121.100,247.400 122.009 C 246.460 122.737,242.227 123.660,237.200 124.234 C 233.831 124.619,231.193 125.140,230.186 125.619 C 228.266 126.534,226.047 126.980,220.400 127.589 C 218.090 127.837,214.490 128.564,212.400 129.204 C 210.310 129.844,206.080 130.715,203.000 131.140 C 199.920 131.565,196.639 132.200,195.708 132.552 C 194.777 132.903,191.267 133.570,187.908 134.035 C 184.397 134.520,181.052 135.215,180.042 135.669 C 178.382 136.415,174.214 137.081,165.654 137.970 C 163.594 138.184,161.614 138.601,161.254 138.898 C 160.894 139.194,159.542 139.968,158.248 140.618 C 154.591 142.456,151.117 146.538,150.599 149.608 C 150.451 150.481,150.166 151.297,149.965 151.422 C 149.508 151.704,149.516 192.157,149.988 265.539 C 150.359 323.191,150.335 324.473,148.832 328.042 C 148.611 328.569,148.145 330.620,147.798 332.600 C 147.421 334.751,146.631 337.327,145.835 339.000 C 145.102 340.540,144.289 342.463,144.029 343.273 C 143.769 344.083,143.050 345.382,142.432 346.160 C 141.813 346.938,141.067 348.165,140.774 348.887 C 140.480 349.609,139.901 350.446,139.486 350.747 C 139.071 351.047,138.420 351.805,138.040 352.430 C 136.899 354.306,130.009 361.200,129.275 361.200 C 129.081 361.200,128.274 361.830,127.481 362.600 C 126.688 363.370,125.780 364.000,125.463 364.000 C 125.146 364.000,124.013 364.724,122.944 365.609 C 121.875 366.495,120.323 367.402,119.495 367.626 C 118.668 367.850,117.196 368.570,116.224 369.225 C 115.253 369.881,113.230 370.702,111.729 371.049 C 110.228 371.397,108.190 372.007,107.200 372.407 C 101.725 374.615,82.219 374.656,77.215 372.470 C 76.437 372.130,74.345 371.547,72.567 371.174 C 70.772 370.797,68.593 370.027,67.665 369.441 C 66.747 368.861,65.004 368.016,63.791 367.562 C 62.579 367.109,61.095 366.326,60.494 365.824 C 59.892 365.321,58.668 364.538,57.773 364.084 C 56.879 363.630,55.902 362.963,55.602 362.603 C 55.303 362.242,54.505 361.662,53.829 361.313 C 52.107 360.424,42.983 351.009,42.351 349.470 C 42.065 348.771,41.401 347.858,40.875 347.439 C 40.350 347.021,39.575 345.875,39.154 344.893 C 38.733 343.911,38.010 342.576,37.547 341.926 C 37.085 341.276,36.387 339.542,35.998 338.072 C 35.608 336.602,34.921 334.589,34.469 333.598 C 32.090 328.370,32.168 311.960,34.596 307.200 C 35.101 306.210,35.824 304.183,36.202 302.696 C 36.581 301.209,37.223 299.570,37.630 299.053 C 38.036 298.536,38.701 297.268,39.107 296.234 C 39.513 295.201,40.334 293.837,40.932 293.203 C 41.530 292.570,42.282 291.422,42.604 290.653 C 42.925 289.884,43.379 289.137,43.612 288.992 C 43.846 288.848,44.767 287.801,45.661 286.665 C 47.884 283.839,53.918 277.583,55.393 276.576 C 56.057 276.123,57.317 275.093,58.194 274.287 C 59.070 273.482,60.263 272.718,60.845 272.590 C 61.427 272.462,62.496 271.829,63.220 271.182 C 63.945 270.535,65.541 269.631,66.769 269.173 C 67.996 268.714,69.270 268.101,69.600 267.809 C 70.423 267.083,72.680 266.185,74.578 265.830 C 75.446 265.667,76.976 265.120,77.978 264.614 C 83.625 261.761,101.939 261.733,107.000 264.570 C 107.880 265.063,109.624 265.687,110.876 265.957 C 112.127 266.226,113.594 266.794,114.134 267.220 C 116.336 268.952,120.914 270.019,121.903 269.030 C 122.018 268.915,121.732 255.451,121.267 239.111 C 119.455 175.356,118.392 104.956,119.159 99.483 C 119.587 96.436,120.245 94.618,121.313 93.538 C 121.605 93.242,122.273 92.235,122.796 91.300 C 123.319 90.365,123.894 89.600,124.073 89.600 C 124.251 89.600,125.095 88.970,125.947 88.201 C 126.798 87.431,128.284 86.529,129.248 86.196 C 130.211 85.863,132.080 85.059,133.400 84.409 C 135.256 83.496,136.934 83.085,140.800 82.596 C 143.550 82.248,146.221 81.788,146.735 81.574 C 148.867 80.687,153.663 79.629,157.600 79.178 C 159.910 78.913,163.060 78.288,164.600 77.788 C 166.140 77.288,169.830 76.574,172.800 76.202 C 175.770 75.829,179.550 75.103,181.200 74.588 C 184.636 73.515,187.036 73.039,192.400 72.364 C 194.490 72.101,196.488 71.740,196.840 71.561 C 198.189 70.876,203.560 69.653,207.200 69.202 C 209.290 68.943,212.980 68.218,215.400 67.592 C 217.820 66.965,221.510 66.247,223.600 65.995 C 225.690 65.744,229.024 65.026,231.008 64.400 C 233.138 63.728,236.907 62.988,240.208 62.593 C 243.284 62.225,246.700 61.596,247.800 61.196 C 251.125 59.986,252.791 59.616,257.691 58.999 C 260.271 58.674,263.684 58.047,265.275 57.606 C 266.866 57.165,270.245 56.525,272.784 56.183 C 275.323 55.841,278.480 55.220,279.800 54.803 C 283.655 53.583,286.975 53.331,290.400 53.998 " stroke="none" fill="#1c1c23" fill-rule="evenodd"></path><path id="path3" d="M283.200 53.876 C 282.650 53.968,281.120 54.385,279.800 54.803 C 278.480 55.220,275.323 55.841,272.784 56.183 C 270.245 56.525,266.866 57.165,265.275 57.606 C 263.684 58.047,260.271 58.674,257.691 58.999 C 252.791 59.616,251.125 59.986,247.800 61.196 C 246.700 61.596,243.284 62.225,240.208 62.593 C 236.907 62.988,233.138 63.728,231.008 64.400 C 229.024 65.026,225.690 65.744,223.600 65.995 C 221.510 66.247,217.820 66.965,215.400 67.592 C 212.980 68.218,209.290 68.943,207.200 69.202 C 203.560 69.653,198.189 70.876,196.840 71.561 C 196.488 71.740,194.490 72.101,192.400 72.364 C 187.036 73.039,184.636 73.515,181.200 74.588 C 179.550 75.103,175.770 75.829,172.800 76.202 C 169.830 76.574,166.140 77.288,164.600 77.788 C 163.060 78.288,159.910 78.913,157.600 79.178 C 153.663 79.629,148.867 80.687,146.735 81.574 C 146.221 81.788,143.550 82.248,140.800 82.596 C 136.934 83.085,135.256 83.496,133.400 84.409 C 132.080 85.059,130.211 85.863,129.248 86.196 C 128.284 86.529,126.798 87.431,125.947 88.201 C 125.095 88.970,124.251 89.600,124.073 89.600 C 123.894 89.600,123.319 90.365,122.796 91.300 C 122.273 92.235,121.605 93.242,121.313 93.538 C 120.245 94.618,119.587 96.436,119.159 99.483 C 118.392 104.956,119.455 175.356,121.267 239.111 C 121.732 255.451,122.018 268.915,121.903 269.030 C 120.914 270.019,116.336 268.952,114.134 267.220 C 113.594 266.794,112.127 266.226,110.876 265.957 C 109.624 265.687,107.880 265.063,107.000 264.570 C 101.939 261.733,83.625 261.761,77.978 264.614 C 76.976 265.120,75.446 265.667,74.578 265.830 C 72.680 266.185,70.423 267.083,69.600 267.809 C 69.270 268.101,67.996 268.714,66.769 269.173 C 65.541 269.631,63.945 270.535,63.220 271.182 C 62.496 271.829,61.427 272.462,60.845 272.590 C 60.263 272.718,59.070 273.482,58.194 274.287 C 57.317 275.093,56.057 276.123,55.393 276.576 C 53.918 277.583,47.884 283.839,45.661 286.665 C 44.767 287.801,43.846 288.848,43.612 288.992 C 43.379 289.137,42.925 289.884,42.604 290.653 C 42.282 291.422,41.530 292.570,40.932 293.203 C 40.334 293.837,39.513 295.201,39.107 296.234 C 38.701 297.268,38.036 298.536,37.630 299.053 C 37.223 299.570,36.581 301.209,36.202 302.696 C 35.824 304.183,35.101 306.210,34.596 307.200 C 32.168 311.960,32.090 328.370,34.469 333.598 C 34.921 334.589,35.608 336.602,35.998 338.072 C 36.387 339.542,37.085 341.276,37.547 341.926 C 38.010 342.576,38.733 343.911,39.154 344.893 C 39.575 345.875,40.350 347.021,40.875 347.439 C 41.401 347.858,42.065 348.771,42.351 349.470 C 42.983 351.009,52.107 360.424,53.829 361.313 C 54.505 361.662,55.303 362.242,55.602 362.603 C 55.902 362.963,56.879 363.630,57.773 364.084 C 58.668 364.538,59.892 365.321,60.494 365.824 C 61.095 366.326,62.579 367.109,63.791 367.562 C 65.004 368.016,66.747 368.861,67.665 369.441 C 68.593 370.027,70.772 370.797,72.567 371.174 C 74.345 371.547,76.437 372.130,77.215 372.470 C 82.219 374.656,101.725 374.615,107.200 372.407 C 108.190 372.007,110.228 371.397,111.729 371.049 C 113.230 370.702,115.253 369.881,116.224 369.225 C 117.196 368.570,118.668 367.850,119.495 367.626 C 120.323 367.402,121.875 366.495,122.944 365.609 C 124.013 364.724,125.146 364.000,125.463 364.000 C 125.780 364.000,126.688 363.370,127.481 362.600 C 128.274 361.830,129.081 361.200,129.275 361.200 C 130.009 361.200,136.899 354.306,138.040 352.430 C 138.420 351.805,139.071 351.047,139.486 350.747 C 139.901 350.446,140.480 349.609,140.774 348.887 C 141.067 348.165,141.813 346.938,142.432 346.160 C 143.050 345.382,143.769 344.083,144.029 343.273 C 144.289 342.463,145.102 340.540,145.835 339.000 C 146.631 337.327,147.421 334.751,147.798 332.600 C 148.145 330.620,148.611 328.569,148.832 328.042 C 150.335 324.473,150.359 323.191,149.988 265.539 C 149.516 192.157,149.508 151.704,149.965 151.422 C 150.166 151.297,150.451 150.481,150.599 149.608 C 151.117 146.538,154.591 142.456,158.248 140.618 C 159.542 139.968,160.894 139.194,161.254 138.898 C 161.614 138.601,163.594 138.184,165.654 137.970 C 174.214 137.081,178.382 136.415,180.042 135.669 C 181.052 135.215,184.397 134.520,187.908 134.035 C 191.267 133.570,194.777 132.903,195.708 132.552 C 196.639 132.200,199.920 131.565,203.000 131.140 C 206.080 130.715,210.310 129.844,212.400 129.204 C 214.490 128.564,218.090 127.837,220.400 127.589 C 226.047 126.980,228.266 126.534,230.186 125.619 C 231.193 125.140,233.831 124.619,237.200 124.234 C 242.227 123.660,246.460 122.737,247.400 122.009 C 248.573 121.100,261.584 120.493,264.660 121.203 C 266.666 121.666,269.154 123.801,271.106 126.737 L 272.527 128.875 272.829 138.737 C 273.371 156.496,273.083 229.639,272.466 230.835 L 271.931 231.870 270.866 230.815 C 270.279 230.235,268.720 229.430,267.400 229.027 C 266.080 228.623,264.730 228.072,264.400 227.803 C 261.627 225.539,246.192 225.368,241.997 227.555 C 241.138 228.003,239.302 228.661,237.917 229.019 C 235.389 229.671,232.400 231.092,232.400 231.642 C 232.400 231.804,231.815 232.063,231.100 232.217 C 229.300 232.606,226.806 233.918,226.538 234.618 C 226.415 234.939,225.569 235.559,224.657 235.997 C 222.949 236.817,220.735 238.451,217.600 241.205 C 216.610 242.075,215.417 243.055,214.948 243.382 C 213.841 244.156,209.350 248.846,207.269 251.400 C 206.373 252.500,205.092 254.051,204.422 254.846 C 203.752 255.642,202.919 256.975,202.570 257.809 C 202.222 258.643,201.425 259.972,200.799 260.763 C 200.174 261.553,199.460 263.010,199.213 264.000 C 198.966 264.990,198.336 266.790,197.812 268.000 C 195.369 273.639,195.229 292.412,197.594 297.200 C 197.975 297.970,198.681 299.860,199.163 301.400 C 199.646 302.940,200.392 304.740,200.820 305.400 C 201.249 306.060,202.120 307.698,202.756 309.041 C 203.393 310.383,204.189 311.587,204.526 311.716 C 204.864 311.846,205.444 312.593,205.816 313.377 C 207.324 316.556,216.850 325.976,220.400 327.800 C 221.170 328.195,222.046 328.868,222.347 329.294 C 222.647 329.720,223.637 330.388,224.547 330.778 C 225.456 331.168,226.886 331.953,227.724 332.522 C 228.563 333.092,230.219 333.839,231.404 334.184 C 232.589 334.529,233.671 334.991,233.807 335.211 C 234.257 335.939,236.939 336.860,241.400 337.819 C 243.820 338.339,247.150 339.129,248.800 339.575 C 254.015 340.985,262.284 340.654,268.200 338.798 C 269.520 338.384,271.978 337.756,273.662 337.404 C 275.580 337.002,277.079 336.433,277.675 335.881 C 278.198 335.397,279.628 334.684,280.852 334.299 C 282.077 333.913,283.409 333.232,283.814 332.784 C 284.219 332.337,285.326 331.628,286.275 331.208 C 287.224 330.788,288.003 330.300,288.006 330.122 C 288.009 329.945,289.154 328.990,290.551 328.000 C 291.947 327.010,293.377 325.703,293.728 325.096 C 294.080 324.489,294.788 323.832,295.304 323.637 C 295.819 323.441,296.722 322.553,297.310 321.665 C 297.898 320.776,298.920 319.495,299.583 318.818 C 300.245 318.140,301.086 317.004,301.453 316.293 C 301.819 315.582,302.437 314.775,302.826 314.501 C 303.215 314.226,303.843 313.191,304.221 312.201 C 304.599 311.210,305.019 310.400,305.154 310.399 C 305.572 310.398,307.524 307.066,307.831 305.830 C 307.991 305.186,308.645 303.884,309.284 302.937 C 309.923 301.990,310.784 300.087,311.196 298.708 C 311.608 297.328,312.309 295.197,312.753 293.971 C 313.627 291.562,313.487 232.420,312.404 146.000 C 312.179 128.070,311.891 103.770,311.763 92.000 C 311.518 69.508,311.325 67.106,309.662 65.919 C 309.263 65.633,308.596 64.860,308.180 64.200 C 307.305 62.812,303.181 58.807,302.622 58.803 C 302.414 58.801,301.763 58.339,301.175 57.776 C 298.699 55.404,287.976 53.078,283.200 53.876 M293.561 57.186 C 295.293 57.437,296.783 57.973,298.161 58.842 C 299.283 59.549,300.691 60.380,301.290 60.688 C 301.890 60.997,302.700 61.648,303.090 62.135 C 303.481 62.623,304.385 63.434,305.100 63.938 C 305.815 64.442,306.400 65.106,306.400 65.413 C 306.400 65.721,306.929 66.575,307.575 67.311 C 309.552 69.563,309.538 69.206,309.809 124.400 C 309.950 153.110,310.199 202.520,310.363 234.200 C 310.697 298.765,310.869 294.313,307.818 300.321 C 307.069 301.795,306.331 303.540,306.177 304.200 C 306.023 304.860,305.489 305.850,304.991 306.400 C 304.493 306.950,303.610 308.352,303.028 309.516 C 302.016 311.541,301.034 312.993,297.705 317.386 C 296.069 319.546,288.887 326.800,288.385 326.800 C 288.215 326.800,287.322 327.430,286.400 328.200 C 285.478 328.970,284.562 329.600,284.363 329.600 C 284.164 329.600,283.146 330.208,282.101 330.950 C 281.055 331.693,279.030 332.708,277.600 333.205 C 276.170 333.703,274.190 334.522,273.200 335.025 C 267.003 338.174,246.669 338.051,239.491 334.821 C 238.121 334.204,235.920 333.393,234.600 333.019 C 233.280 332.644,231.750 332.045,231.200 331.689 C 230.650 331.332,229.030 330.418,227.600 329.659 C 226.170 328.900,224.443 327.856,223.762 327.339 C 223.081 326.823,222.392 326.400,222.230 326.400 C 220.721 326.400,209.568 315.147,207.000 311.032 C 206.560 310.327,205.802 309.252,205.316 308.642 C 204.830 308.032,204.052 306.514,203.586 305.267 C 203.120 304.020,202.501 302.730,202.209 302.400 C 201.671 301.790,200.603 298.615,199.115 293.200 C 196.997 285.493,198.853 267.380,202.143 263.645 C 202.456 263.290,203.126 262.010,203.633 260.800 C 204.140 259.590,204.952 258.220,205.438 257.755 C 205.925 257.290,206.631 256.300,207.008 255.555 C 207.385 254.810,208.167 253.742,208.747 253.182 C 209.326 252.622,210.760 251.092,211.934 249.782 C 213.923 247.561,217.204 244.543,220.330 242.058 C 221.062 241.476,222.412 240.353,223.330 239.562 C 224.249 238.771,226.125 237.531,227.500 236.806 C 228.875 236.082,230.000 235.356,230.000 235.194 C 230.000 235.031,230.945 234.501,232.100 234.016 C 233.255 233.531,235.060 232.694,236.112 232.157 C 247.318 226.430,260.162 226.169,269.072 231.486 C 272.383 233.462,274.846 233.810,275.596 232.408 C 276.250 231.185,275.966 142.935,275.304 141.600 C 275.031 141.050,274.649 138.350,274.455 135.600 C 273.301 119.234,264.679 115.708,240.760 121.818 C 239.529 122.133,235.393 122.857,231.571 123.427 C 227.748 123.998,224.032 124.710,223.313 125.011 C 222.593 125.311,219.259 125.941,215.902 126.411 C 212.546 126.880,208.810 127.513,207.600 127.817 C 206.390 128.120,203.240 128.728,200.600 129.166 C 193.248 130.386,191.237 130.782,188.200 131.610 C 186.660 132.029,182.956 132.743,179.968 133.195 C 176.981 133.647,173.292 134.373,171.770 134.809 C 170.248 135.244,168.282 135.604,167.401 135.609 C 164.356 135.625,158.702 137.135,156.935 138.404 C 156.019 139.062,155.142 139.600,154.986 139.600 C 153.884 139.600,148.358 147.127,147.351 150.000 C 147.154 150.561,147.000 189.540,147.000 238.800 C 147.000 333.632,147.056 330.961,145.005 334.153 C 144.705 334.619,143.975 336.530,143.383 338.400 C 142.790 340.270,141.729 342.700,141.024 343.800 C 140.319 344.900,139.395 346.362,138.971 347.050 C 136.733 350.676,135.554 352.120,132.071 355.500 C 129.974 357.535,128.134 359.200,127.983 359.200 C 127.832 359.200,127.099 359.746,126.354 360.413 C 125.609 361.081,123.830 362.279,122.400 363.076 C 120.970 363.874,119.440 364.836,119.000 365.214 C 118.560 365.592,117.480 366.124,116.600 366.395 C 115.720 366.667,114.259 367.312,113.353 367.830 C 107.197 371.349,91.453 372.853,81.800 370.844 C 73.523 369.121,72.446 368.837,70.530 367.866 C 69.450 367.319,67.539 366.572,66.283 366.207 C 65.027 365.842,64.000 365.378,64.000 365.176 C 64.000 364.974,62.560 364.085,60.800 363.200 C 59.040 362.315,57.600 361.449,57.600 361.275 C 57.600 361.102,56.793 360.449,55.807 359.826 C 52.722 357.876,45.444 350.303,43.097 346.600 C 38.170 338.827,37.634 337.522,36.118 329.600 C 33.684 316.875,35.776 306.414,43.238 294.002 C 44.097 292.573,45.141 291.133,45.557 290.802 C 45.973 290.471,46.616 289.600,46.985 288.866 C 47.701 287.441,58.096 276.800,58.771 276.800 C 58.991 276.800,59.763 276.283,60.486 275.652 C 61.209 275.021,62.747 274.011,63.903 273.408 C 65.060 272.806,66.100 272.162,66.213 271.978 C 66.744 271.120,75.784 267.128,79.200 266.243 C 81.290 265.702,83.990 264.947,85.200 264.567 C 88.251 263.607,98.044 263.604,101.200 264.562 C 102.410 264.929,104.930 265.582,106.800 266.013 C 108.670 266.444,111.238 267.338,112.506 267.999 C 113.774 268.659,115.034 269.209,115.306 269.220 C 115.578 269.231,117.149 270.019,118.797 270.971 C 122.137 272.901,123.154 272.899,123.676 270.961 C 124.235 268.889,122.950 181.670,121.979 155.800 C 121.773 150.300,121.487 135.411,121.343 122.713 L 121.082 99.627 122.963 95.813 C 123.997 93.716,124.973 92.000,125.132 92.000 C 125.291 92.000,125.966 91.505,126.632 90.900 C 130.031 87.810,134.777 86.068,145.000 84.161 C 147.860 83.627,151.550 82.917,153.200 82.582 C 154.850 82.247,158.540 81.546,161.400 81.024 C 167.981 79.823,170.542 79.280,172.800 78.605 C 174.588 78.071,175.945 77.825,184.000 76.574 C 186.310 76.216,188.608 75.664,189.106 75.348 C 189.604 75.032,192.664 74.326,195.906 73.779 C 199.148 73.232,203.420 72.358,205.400 71.837 C 207.380 71.317,211.160 70.498,213.800 70.017 C 216.440 69.536,219.747 68.795,221.148 68.370 C 222.550 67.944,226.330 67.157,229.548 66.621 C 232.767 66.084,236.079 65.361,236.908 65.014 C 237.737 64.667,241.570 63.849,245.426 63.196 C 249.282 62.543,252.744 61.845,253.118 61.646 C 254.433 60.946,262.641 59.635,266.800 59.460 C 269.159 59.361,271.789 59.004,272.800 58.647 C 277.401 57.020,287.498 56.310,293.561 57.186 " stroke="none" fill="#1a5c35" fill-rule="evenodd"></path><path id="path4" d="M277.800 57.441 C 276.040 57.754,273.790 58.297,272.800 58.647 C 271.789 59.004,269.159 59.361,266.800 59.460 C 262.641 59.635,254.433 60.946,253.118 61.646 C 252.744 61.845,249.282 62.543,245.426 63.196 C 241.570 63.849,237.737 64.667,236.908 65.014 C 236.079 65.361,232.767 66.084,229.548 66.621 C 226.330 67.157,222.550 67.944,221.148 68.370 C 219.747 68.795,216.440 69.536,213.800 70.017 C 211.160 70.498,207.380 71.317,205.400 71.837 C 203.420 72.358,199.148 73.232,195.906 73.779 C 192.664 74.326,189.604 75.032,189.106 75.348 C 188.608 75.664,186.310 76.216,184.000 76.574 C 175.945 77.825,174.588 78.071,172.800 78.605 C 170.542 79.280,167.981 79.823,161.400 81.024 C 158.540 81.546,154.850 82.247,153.200 82.582 C 151.550 82.917,147.860 83.627,145.000 84.161 C 134.777 86.068,130.031 87.810,126.632 90.900 C 125.966 91.505,125.291 92.000,125.132 92.000 C 124.973 92.000,123.997 93.716,122.963 95.813 L 121.082 99.627 121.343 122.713 C 121.487 135.411,121.773 150.300,121.979 155.800 C 122.950 181.670,124.235 268.889,123.676 270.961 C 123.154 272.899,122.137 272.901,118.797 270.971 C 117.149 270.019,115.578 269.231,115.306 269.220 C 115.034 269.209,113.774 268.659,112.506 267.999 C 111.238 267.338,108.670 266.444,106.800 266.013 C 104.930 265.582,102.410 264.929,101.200 264.562 C 98.044 263.604,88.251 263.607,85.200 264.567 C 83.990 264.947,81.290 265.702,79.200 266.243 C 75.784 267.128,66.744 271.120,66.213 271.978 C 66.100 272.162,65.060 272.806,63.903 273.408 C 62.747 274.011,61.209 275.021,60.486 275.652 C 59.763 276.283,58.991 276.800,58.771 276.800 C 58.096 276.800,47.701 287.441,46.985 288.866 C 46.616 289.600,45.973 290.471,45.557 290.802 C 45.141 291.133,44.097 292.573,43.238 294.002 C 35.776 306.414,33.684 316.875,36.118 329.600 C 37.634 337.522,38.170 338.827,43.097 346.600 C 45.444 350.303,52.722 357.876,55.807 359.826 C 56.793 360.449,57.600 361.102,57.600 361.275 C 57.600 361.449,59.040 362.315,60.800 363.200 C 62.560 364.085,64.000 364.974,64.000 365.176 C 64.000 365.378,65.027 365.842,66.283 366.207 C 67.539 366.572,69.450 367.319,70.530 367.866 C 72.446 368.837,73.523 369.121,81.800 370.844 C 91.453 372.853,107.197 371.349,113.353 367.830 C 114.259 367.312,115.720 366.667,116.600 366.395 C 117.480 366.124,118.560 365.592,119.000 365.214 C 119.440 364.836,120.970 363.874,122.400 363.076 C 123.830 362.279,125.609 361.081,126.354 360.413 C 127.099 359.746,127.832 359.200,127.983 359.200 C 128.134 359.200,129.974 357.535,132.071 355.500 C 135.554 352.120,136.733 350.676,138.971 347.050 C 139.395 346.362,140.319 344.900,141.024 343.800 C 141.729 342.700,142.790 340.270,143.383 338.400 C 143.975 336.530,144.705 334.619,145.005 334.153 C 147.056 330.961,147.000 333.632,147.000 238.800 C 147.000 189.540,147.154 150.561,147.351 150.000 C 148.358 147.127,153.884 139.600,154.986 139.600 C 155.142 139.600,156.019 139.062,156.935 138.404 C 158.702 137.135,164.356 135.625,167.401 135.609 C 168.282 135.604,170.248 135.244,171.770 134.809 C 173.292 134.373,176.981 133.647,179.968 133.195 C 182.956 132.743,186.660 132.029,188.200 131.610 C 191.237 130.782,193.248 130.386,200.600 129.166 C 203.240 128.728,206.390 128.120,207.600 127.817 C 208.810 127.513,212.546 126.880,215.902 126.411 C 219.259 125.941,222.593 125.311,223.313 125.011 C 224.032 124.710,227.748 123.998,231.571 123.427 C 235.393 122.857,239.529 122.133,240.760 121.818 C 248.896 119.740,260.374 118.427,263.400 119.228 C 270.700 121.162,273.756 125.688,274.455 135.600 C 274.649 138.350,275.031 141.050,275.304 141.600 C 275.966 142.935,276.250 231.185,275.596 232.408 C 274.846 233.810,272.383 233.462,269.072 231.486 C 260.162 226.169,247.318 226.430,236.112 232.157 C 235.060 232.694,233.255 233.531,232.100 234.016 C 230.945 234.501,230.000 235.031,230.000 235.194 C 230.000 235.356,228.875 236.082,227.500 236.806 C 226.125 237.531,224.249 238.771,223.330 239.562 C 222.412 240.353,221.062 241.476,220.330 242.058 C 217.204 244.543,213.923 247.561,211.934 249.782 C 210.760 251.092,209.326 252.622,208.747 253.182 C 208.167 253.742,207.385 254.810,207.008 255.555 C 206.631 256.300,205.925 257.290,205.438 257.755 C 204.952 258.220,204.140 259.590,203.633 260.800 C 203.126 262.010,202.456 263.290,202.143 263.645 C 198.853 267.380,196.997 285.493,199.115 293.200 C 200.603 298.615,201.671 301.790,202.209 302.400 C 202.501 302.730,203.120 304.020,203.586 305.267 C 204.052 306.514,204.830 308.032,205.316 308.642 C 205.802 309.252,206.560 310.327,207.000 311.032 C 209.568 315.147,220.721 326.400,222.230 326.400 C 222.392 326.400,223.081 326.823,223.762 327.339 C 224.443 327.856,226.170 328.900,227.600 329.659 C 229.030 330.418,230.650 331.332,231.200 331.689 C 231.750 332.045,233.280 332.644,234.600 333.019 C 235.920 333.393,238.121 334.204,239.491 334.821 C 246.669 338.051,267.003 338.174,273.200 335.025 C 274.190 334.522,276.170 333.703,277.600 333.205 C 279.030 332.708,281.055 331.693,282.101 330.950 C 283.146 330.208,284.164 329.600,284.363 329.600 C 284.562 329.600,285.478 328.970,286.400 328.200 C 287.322 327.430,288.215 326.800,288.385 326.800 C 288.887 326.800,296.069 319.546,297.705 317.386 C 301.034 312.993,302.016 311.541,303.028 309.516 C 303.610 308.352,304.493 306.950,304.991 306.400 C 305.489 305.850,306.023 304.860,306.177 304.200 C 306.331 303.540,307.069 301.795,307.818 300.321 C 310.869 294.313,310.697 298.765,310.363 234.200 C 310.199 202.520,309.950 153.110,309.809 124.400 C 309.538 69.206,309.552 69.563,307.575 67.311 C 306.929 66.575,306.400 65.721,306.400 65.413 C 306.400 65.106,305.815 64.442,305.100 63.938 C 304.385 63.434,303.481 62.623,303.090 62.135 C 302.700 61.648,301.890 60.997,301.290 60.688 C 300.691 60.380,299.283 59.549,298.161 58.842 C 294.892 56.781,285.243 56.117,277.800 57.441 M291.173 57.620 C 294.841 58.080,300.546 60.687,302.242 62.679 C 302.705 63.223,303.571 63.987,304.165 64.377 C 304.759 64.767,305.550 65.635,305.922 66.307 C 306.295 66.979,307.077 68.404,307.661 69.474 L 308.722 71.420 308.959 114.010 C 309.540 218.478,309.647 291.824,309.222 293.977 C 308.985 295.175,308.272 297.245,307.637 298.577 C 307.002 299.910,306.268 301.680,306.007 302.510 C 305.745 303.341,305.119 304.511,304.614 305.110 C 304.110 305.710,303.286 307.100,302.782 308.200 C 302.278 309.300,301.294 310.920,300.595 311.800 C 299.896 312.680,299.125 313.776,298.882 314.236 C 298.639 314.696,297.900 315.650,297.241 316.357 C 296.581 317.063,295.933 317.982,295.800 318.400 C 295.668 318.817,295.253 319.258,294.880 319.379 C 294.506 319.500,293.779 320.219,293.264 320.977 C 292.749 321.735,291.849 322.661,291.264 323.035 C 290.679 323.409,289.630 324.274,288.934 324.957 C 287.129 326.730,285.218 328.177,283.600 328.998 C 282.830 329.388,281.300 330.288,280.200 330.997 C 279.100 331.705,277.300 332.513,276.200 332.792 C 275.100 333.071,273.120 333.810,271.800 334.434 C 266.555 336.914,246.678 337.153,242.000 334.793 C 241.230 334.405,238.980 333.590,237.000 332.982 C 235.020 332.374,232.652 331.382,231.738 330.777 C 230.823 330.173,229.653 329.549,229.138 329.393 C 228.622 329.236,226.991 328.319,225.513 327.354 C 224.035 326.389,222.661 325.600,222.459 325.600 C 222.257 325.600,221.799 325.152,221.440 324.605 C 221.082 324.058,220.116 323.262,219.294 322.835 C 218.472 322.409,217.352 321.507,216.804 320.830 C 216.257 320.154,215.579 319.600,215.299 319.600 C 215.018 319.600,214.476 319.086,214.094 318.458 C 213.712 317.830,212.814 316.824,212.100 316.222 C 211.385 315.621,210.800 314.888,210.800 314.594 C 210.800 314.299,210.192 313.550,209.450 312.929 C 208.707 312.308,207.962 311.352,207.793 310.805 C 207.411 309.568,205.604 306.800,205.178 306.800 C 205.004 306.800,204.645 306.125,204.379 305.300 C 204.113 304.475,203.366 302.720,202.718 301.400 C 202.070 300.080,201.206 297.470,200.796 295.600 C 200.387 293.730,199.839 291.390,199.578 290.400 C 198.970 288.093,198.951 279.716,199.546 276.600 C 201.099 268.468,201.568 266.771,203.197 263.400 C 204.153 261.420,205.459 259.193,206.099 258.451 C 206.739 257.709,207.473 256.629,207.731 256.051 C 207.989 255.473,208.830 254.354,209.600 253.564 C 210.370 252.774,211.810 251.198,212.800 250.062 C 213.790 248.926,215.176 247.628,215.879 247.178 C 216.583 246.728,217.271 246.006,217.408 245.573 C 217.546 245.141,218.374 244.421,219.249 243.975 C 220.123 243.529,220.942 242.895,221.068 242.567 C 221.194 242.239,221.770 241.724,222.348 241.423 C 222.927 241.122,223.940 240.391,224.600 239.798 C 225.260 239.206,226.927 238.181,228.306 237.520 C 229.684 236.860,231.034 236.006,231.306 235.622 C 231.577 235.239,232.970 234.525,234.400 234.035 C 235.830 233.546,237.568 232.813,238.262 232.408 C 238.957 232.003,240.937 231.380,242.662 231.024 C 244.388 230.668,246.790 230.157,248.000 229.889 C 253.199 228.734,263.801 230.127,266.605 232.332 C 267.820 233.288,273.586 235.600,274.754 235.600 C 276.866 235.600,276.833 236.522,276.712 181.600 L 276.600 131.000 275.541 128.800 C 274.959 127.590,274.198 125.913,273.850 125.073 C 271.238 118.763,260.163 114.878,252.800 117.687 C 251.810 118.064,248.750 118.730,246.000 119.165 C 240.521 120.033,235.955 120.982,234.400 121.575 C 233.850 121.785,230.712 122.339,227.426 122.808 C 224.141 123.276,220.091 124.079,218.426 124.592 C 216.762 125.105,213.330 125.815,210.800 126.171 C 208.270 126.527,205.120 127.101,203.800 127.446 C 202.480 127.791,199.420 128.412,197.000 128.825 C 188.903 130.210,187.812 130.434,185.400 131.207 C 184.080 131.631,178.950 132.605,174.000 133.373 C 165.910 134.628,163.684 135.071,158.771 136.402 C 156.978 136.888,154.942 138.352,151.939 141.313 C 149.709 143.513,149.265 144.165,147.114 148.400 L 146.200 150.200 146.345 235.600 C 146.500 326.883,146.468 328.728,144.625 332.400 C 144.129 333.390,143.332 335.699,142.856 337.531 C 142.260 339.821,141.553 341.433,140.595 342.689 C 139.828 343.693,139.200 344.689,139.200 344.901 C 139.200 345.554,135.353 351.080,133.732 352.754 C 132.889 353.624,131.906 354.666,131.546 355.068 C 130.917 355.772,129.437 356.963,124.886 360.430 C 123.724 361.316,122.013 362.366,121.083 362.764 C 120.154 363.163,118.855 363.937,118.197 364.486 C 117.539 365.035,116.280 365.711,115.400 365.989 C 114.520 366.266,112.720 366.993,111.400 367.605 C 110.080 368.216,107.650 368.931,106.000 369.194 C 104.350 369.456,102.100 369.849,101.000 370.068 C 97.700 370.722,89.641 370.917,85.800 370.436 C 79.886 369.694,74.285 368.570,72.885 367.845 C 72.162 367.470,70.298 366.734,68.744 366.208 C 67.189 365.682,65.261 364.809,64.459 364.269 C 63.656 363.728,62.280 362.958,61.400 362.556 C 60.520 362.155,59.350 361.404,58.800 360.886 C 58.250 360.369,57.170 359.614,56.400 359.208 C 54.757 358.342,47.775 351.576,47.437 350.523 C 47.309 350.125,46.685 349.453,46.050 349.029 C 45.415 348.604,44.397 347.254,43.789 346.029 C 43.181 344.803,42.372 343.440,41.991 343.000 C 41.610 342.560,41.069 341.480,40.788 340.600 C 40.507 339.720,39.827 338.284,39.276 337.409 C 35.451 331.330,35.524 309.740,39.390 303.615 C 39.902 302.806,40.621 301.256,40.989 300.172 C 41.357 299.087,41.894 297.930,42.183 297.600 C 42.472 297.270,43.188 296.043,43.775 294.873 C 44.361 293.703,45.461 292.143,46.220 291.407 C 46.979 290.670,47.600 289.863,47.600 289.615 C 47.600 289.366,48.365 288.338,49.300 287.331 C 53.300 283.020,55.943 280.400,56.291 280.400 C 56.497 280.400,56.915 279.933,57.220 279.362 C 57.526 278.791,58.624 277.895,59.660 277.370 C 60.696 276.844,61.782 276.092,62.072 275.698 C 62.362 275.304,63.410 274.637,64.400 274.215 C 65.390 273.792,66.910 272.941,67.779 272.323 C 68.647 271.706,69.617 271.200,69.934 271.200 C 70.250 271.200,71.990 270.480,73.799 269.600 C 80.269 266.455,90.955 265.085,99.007 266.370 C 106.320 267.538,107.852 267.933,110.800 269.410 C 112.230 270.127,113.926 270.834,114.568 270.981 C 115.211 271.129,116.187 271.604,116.737 272.037 C 119.567 274.262,121.939 274.758,123.468 273.443 L 124.582 272.485 124.476 256.543 C 124.272 225.741,123.207 155.231,122.706 139.400 C 122.428 130.600,122.200 118.090,122.200 111.600 L 122.200 99.800 123.525 96.600 C 125.675 91.406,129.780 88.495,137.071 86.995 C 139.892 86.414,142.740 85.706,143.400 85.421 C 144.060 85.136,147.598 84.428,151.263 83.847 C 154.927 83.266,158.547 82.531,159.306 82.213 C 160.066 81.896,162.917 81.342,165.643 80.982 C 168.370 80.622,172.400 79.814,174.600 79.186 C 176.800 78.558,180.310 77.844,182.400 77.599 C 187.884 76.955,190.780 76.379,192.600 75.569 C 193.480 75.177,196.411 74.564,199.113 74.207 C 201.814 73.850,205.324 73.205,206.913 72.773 C 208.501 72.342,212.140 71.622,215.000 71.173 C 217.860 70.725,221.728 69.899,223.596 69.337 C 225.464 68.775,229.964 67.873,233.596 67.331 C 237.228 66.789,240.978 66.002,241.930 65.582 C 242.881 65.162,245.851 64.534,248.530 64.186 C 253.802 63.501,256.052 63.065,257.847 62.381 C 259.457 61.769,261.916 61.335,266.800 60.803 C 269.175 60.544,272.565 59.836,274.600 59.173 C 279.934 57.436,285.527 56.912,291.173 57.620 " stroke="none" fill="#447454" fill-rule="evenodd"></path></g></svg>